<svg width="20" height="20" viewBox="0 0 20 20" fill="none" xmlns="http://www.w3.org/2000/svg">
<g clip-path="url(#clip0)">
<path d="M20 6.33167C19.9634 6.11167 19.9334 5.94001 19.7 5.79751C10.1592 0.138343 10.2942 -0.283323 9.67501 0.0908431C2.44417 4.58584 0.431667 5.58834 0.1425 5.93834C-0.120001 6.20751 -6.50063e-07 6.62 -6.50063e-07 12.8533C-0.0175007 13.5625 6.45251 17.405 9.59918 19.8567C9.87668 20.0542 10.2258 20.0225 10.435 19.8325C19.7884 13.2025 20.0159 13.4692 20 12.8533C20 12.8533 19.99 6.24751 20 6.33167ZM18.75 11.7408L15.52 9.775L18.75 7.5275V11.7408ZM14.3525 9.06417L10.625 6.79584V1.73751L18.23 6.36667L14.3525 9.06417ZM10 12.0917L6.77001 9.84417L10 7.87834L13.23 9.84417L10 12.0917ZM9.37501 1.73668V6.79834C7.92584 7.6975 6.70084 8.44834 5.66584 9.07667L1.77 6.36667L9.37501 1.73668ZM4.49417 9.785C2.9325 10.7242 1.9125 11.3208 1.25 11.7183V7.5275L4.49417 9.785ZM5.60251 10.555L9.37501 13.1792V18.1783L1.77 12.8875L5.60251 10.555ZM10.625 18.1792V13.18L14.3975 10.5558L18.23 12.8883L10.625 18.1792Z" fill="#B0AFAF"/>
</g>
<defs>
<clipPath id="clip0">
<rect width="20" height="20" fill="white"/>
</clipPath>
</defs>
</svg>
